<mxfile host="Electron" agent="Mozilla/5.0 (Windows NT 10.0; Win64; x64) AppleWebKit/537.36 (KHTML, like Gecko) draw.io/24.7.8 Chrome/128.0.6613.36 Electron/32.0.1 Safari/537.36" version="24.7.8">
  <diagram name="Page-1" id="goLkYx8yV17CemSyyyK2">
    <mxGraphModel dx="4116" dy="1736" grid="0" gridSize="10" guides="1" tooltips="1" connect="1" arrows="0" fold="1" page="0" pageScale="1" pageWidth="850" pageHeight="1100" math="0" shadow="0">
      <root>
        <mxCell id="0" />
        <mxCell id="1" parent="0" />
        <mxCell id="7QTIvbrDU5lFfidB-otQ-1" value="SPONSEE" style="shape=umlActor;verticalLabelPosition=bottom;verticalAlign=top;html=1;outlineConnect=0;" parent="1" vertex="1">
          <mxGeometry x="-415" y="146" width="30" height="60" as="geometry" />
        </mxCell>
        <mxCell id="7QTIvbrDU5lFfidB-otQ-2" value="ADMIN" style="shape=umlActor;verticalLabelPosition=bottom;verticalAlign=top;html=1;outlineConnect=0;" parent="1" vertex="1">
          <mxGeometry x="-128" y="128" width="30" height="60" as="geometry" />
        </mxCell>
        <mxCell id="7QTIvbrDU5lFfidB-otQ-3" value="SPONSOR" style="shape=umlActor;verticalLabelPosition=bottom;verticalAlign=top;html=1;outlineConnect=0;" parent="1" vertex="1">
          <mxGeometry x="313" y="146" width="30" height="60" as="geometry" />
        </mxCell>
        <mxCell id="7QTIvbrDU5lFfidB-otQ-6" value="SPONSORSHIP MANAGEMENT SYSTEM" style="rounded=1;whiteSpace=wrap;html=1;" parent="1" vertex="1">
          <mxGeometry x="568" y="186" width="284" height="33" as="geometry" />
        </mxCell>
        <mxCell id="7QTIvbrDU5lFfidB-otQ-7" value="" style="endArrow=none;dashed=1;html=1;dashPattern=1 3;strokeWidth=2;rounded=0;" parent="1" target="7QTIvbrDU5lFfidB-otQ-1" edge="1">
          <mxGeometry width="50" height="50" relative="1" as="geometry">
            <mxPoint x="-377" y="1116" as="sourcePoint" />
            <mxPoint x="-206" y="211" as="targetPoint" />
          </mxGeometry>
        </mxCell>
        <mxCell id="7QTIvbrDU5lFfidB-otQ-8" value="" style="endArrow=none;dashed=1;html=1;dashPattern=1 3;strokeWidth=2;rounded=0;exitX=0.5;exitY=0;exitDx=0;exitDy=0;exitPerimeter=0;" parent="1" source="7QTIvbrDU5lFfidB-otQ-11" edge="1">
          <mxGeometry width="50" height="50" relative="1" as="geometry">
            <mxPoint x="-105" y="744" as="sourcePoint" />
            <mxPoint x="-113" y="212" as="targetPoint" />
          </mxGeometry>
        </mxCell>
        <mxCell id="7QTIvbrDU5lFfidB-otQ-9" value="SPONSEE" style="shape=umlActor;verticalLabelPosition=bottom;verticalAlign=top;html=1;outlineConnect=0;" parent="1" vertex="1">
          <mxGeometry x="-397" y="1127" width="30" height="60" as="geometry" />
        </mxCell>
        <mxCell id="7QTIvbrDU5lFfidB-otQ-11" value="ADMIN" style="shape=umlActor;verticalLabelPosition=bottom;verticalAlign=top;html=1;outlineConnect=0;" parent="1" vertex="1">
          <mxGeometry x="-92" y="1132" width="30" height="60" as="geometry" />
        </mxCell>
        <mxCell id="7QTIvbrDU5lFfidB-otQ-12" value="" style="endArrow=none;dashed=1;html=1;dashPattern=1 3;strokeWidth=2;rounded=0;" parent="1" edge="1">
          <mxGeometry width="50" height="50" relative="1" as="geometry">
            <mxPoint x="359" y="1127" as="sourcePoint" />
            <mxPoint x="331" y="225" as="targetPoint" />
          </mxGeometry>
        </mxCell>
        <mxCell id="7QTIvbrDU5lFfidB-otQ-13" value="SPONSOR" style="shape=umlActor;verticalLabelPosition=bottom;verticalAlign=top;html=1;outlineConnect=0;" parent="1" vertex="1">
          <mxGeometry x="340" y="1132" width="30" height="60" as="geometry" />
        </mxCell>
        <mxCell id="7QTIvbrDU5lFfidB-otQ-14" value="" style="endArrow=classic;html=1;rounded=0;" parent="1" edge="1">
          <mxGeometry width="50" height="50" relative="1" as="geometry">
            <mxPoint x="-382" y="627" as="sourcePoint" />
            <mxPoint x="341" y="615" as="targetPoint" />
          </mxGeometry>
        </mxCell>
        <mxCell id="7QTIvbrDU5lFfidB-otQ-15" value="" style="endArrow=classic;html=1;rounded=0;" parent="1" edge="1">
          <mxGeometry width="50" height="50" relative="1" as="geometry">
            <mxPoint x="340" y="558" as="sourcePoint" />
            <mxPoint x="717" y="558" as="targetPoint" />
          </mxGeometry>
        </mxCell>
        <mxCell id="7QTIvbrDU5lFfidB-otQ-16" value="" style="endArrow=classic;html=1;rounded=0;" parent="1" edge="1">
          <mxGeometry width="50" height="50" relative="1" as="geometry">
            <mxPoint x="347" y="678" as="sourcePoint" />
            <mxPoint x="720" y="668" as="targetPoint" />
          </mxGeometry>
        </mxCell>
        <mxCell id="7QTIvbrDU5lFfidB-otQ-17" value="" style="endArrow=none;dashed=1;html=1;dashPattern=1 3;strokeWidth=2;rounded=0;" parent="1" edge="1">
          <mxGeometry width="50" height="50" relative="1" as="geometry">
            <mxPoint x="731" y="1140" as="sourcePoint" />
            <mxPoint x="710" y="219" as="targetPoint" />
          </mxGeometry>
        </mxCell>
        <mxCell id="7QTIvbrDU5lFfidB-otQ-18" value="SPONSORSHIP MANAGEMENT SYSTEM" style="rounded=1;whiteSpace=wrap;html=1;" parent="1" vertex="1">
          <mxGeometry x="584" y="1150.5" width="284" height="33" as="geometry" />
        </mxCell>
        <mxCell id="7QTIvbrDU5lFfidB-otQ-19" value="" style="endArrow=classic;html=1;rounded=0;" parent="1" edge="1">
          <mxGeometry width="50" height="50" relative="1" as="geometry">
            <mxPoint x="715" y="483" as="sourcePoint" />
            <mxPoint x="336" y="487" as="targetPoint" />
          </mxGeometry>
        </mxCell>
        <mxCell id="7QTIvbrDU5lFfidB-otQ-20" value="" style="endArrow=classic;html=1;rounded=0;" parent="1" edge="1">
          <mxGeometry width="50" height="50" relative="1" as="geometry">
            <mxPoint x="-391" y="316" as="sourcePoint" />
            <mxPoint x="711" y="303" as="targetPoint" />
          </mxGeometry>
        </mxCell>
        <mxCell id="7QTIvbrDU5lFfidB-otQ-21" value="" style="endArrow=classic;html=1;rounded=0;" parent="1" edge="1">
          <mxGeometry width="50" height="50" relative="1" as="geometry">
            <mxPoint x="-82" y="921" as="sourcePoint" />
            <mxPoint x="726" y="917" as="targetPoint" />
          </mxGeometry>
        </mxCell>
        <mxCell id="7QTIvbrDU5lFfidB-otQ-22" value="" style="endArrow=classic;html=1;rounded=0;" parent="1" edge="1">
          <mxGeometry width="50" height="50" relative="1" as="geometry">
            <mxPoint x="710" y="366" as="sourcePoint" />
            <mxPoint x="-109" y="362" as="targetPoint" />
          </mxGeometry>
        </mxCell>
        <mxCell id="7QTIvbrDU5lFfidB-otQ-23" value="" style="endArrow=classic;html=1;rounded=0;" parent="1" edge="1">
          <mxGeometry width="50" height="50" relative="1" as="geometry">
            <mxPoint x="340" y="535" as="sourcePoint" />
            <mxPoint x="-389" y="535" as="targetPoint" />
          </mxGeometry>
        </mxCell>
        <mxCell id="7QTIvbrDU5lFfidB-otQ-27" value="" style="endArrow=classic;html=1;rounded=0;" parent="1" edge="1">
          <mxGeometry width="50" height="50" relative="1" as="geometry">
            <mxPoint x="730" y="1072" as="sourcePoint" />
            <mxPoint x="-377" y="1087" as="targetPoint" />
          </mxGeometry>
        </mxCell>
        <mxCell id="7QTIvbrDU5lFfidB-otQ-29" value="" style="endArrow=classic;html=1;rounded=0;" parent="1" edge="1">
          <mxGeometry width="50" height="50" relative="1" as="geometry">
            <mxPoint x="724.5" y="778" as="sourcePoint" />
            <mxPoint x="-90" y="817" as="targetPoint" />
          </mxGeometry>
        </mxCell>
        <mxCell id="7QTIvbrDU5lFfidB-otQ-31" value="" style="endArrow=classic;html=1;rounded=0;" parent="1" edge="1">
          <mxGeometry width="50" height="50" relative="1" as="geometry">
            <mxPoint x="-105" y="436" as="sourcePoint" />
            <mxPoint x="716" y="432" as="targetPoint" />
          </mxGeometry>
        </mxCell>
        <mxCell id="7QTIvbrDU5lFfidB-otQ-32" value="" style="endArrow=classic;html=1;rounded=0;" parent="1" edge="1">
          <mxGeometry width="50" height="50" relative="1" as="geometry">
            <mxPoint x="726" y="1004" as="sourcePoint" />
            <mxPoint x="351" y="1008" as="targetPoint" />
          </mxGeometry>
        </mxCell>
        <mxCell id="7QTIvbrDU5lFfidB-otQ-34" value="" style="endArrow=classic;html=1;rounded=0;" parent="1" edge="1">
          <mxGeometry width="50" height="50" relative="1" as="geometry">
            <mxPoint x="343" y="711" as="sourcePoint" />
            <mxPoint x="-386" y="729" as="targetPoint" />
          </mxGeometry>
        </mxCell>
        <mxCell id="7QTIvbrDU5lFfidB-otQ-35" value="Text" style="text;html=1;align=center;verticalAlign=middle;whiteSpace=wrap;rounded=0;" parent="1" vertex="1">
          <mxGeometry x="1177" y="1025" width="60" height="30" as="geometry" />
        </mxCell>
        <mxCell id="7QTIvbrDU5lFfidB-otQ-36" value="submit sponsorship request" style="text;html=1;align=center;verticalAlign=middle;resizable=0;points=[];autosize=1;strokeColor=none;fillColor=none;" parent="1" vertex="1">
          <mxGeometry x="-272" y="274" width="165" height="26" as="geometry" />
        </mxCell>
        <mxCell id="7QTIvbrDU5lFfidB-otQ-37" value="notify Admin of new request" style="text;html=1;align=center;verticalAlign=middle;whiteSpace=wrap;rounded=0;" parent="1" vertex="1">
          <mxGeometry x="-18" y="329" width="128" height="30" as="geometry" />
        </mxCell>
        <mxCell id="7QTIvbrDU5lFfidB-otQ-38" value="reviews and approve request" style="text;html=1;align=center;verticalAlign=middle;resizable=0;points=[];autosize=1;strokeColor=none;fillColor=none;" parent="1" vertex="1">
          <mxGeometry x="-66" y="403" width="172" height="26" as="geometry" />
        </mxCell>
        <mxCell id="7QTIvbrDU5lFfidB-otQ-39" value="notify sponsor of available request" style="text;html=1;align=center;verticalAlign=middle;resizable=0;points=[];autosize=1;strokeColor=none;fillColor=none;" parent="1" vertex="1">
          <mxGeometry x="384" y="453" width="200" height="26" as="geometry" />
        </mxCell>
        <mxCell id="7QTIvbrDU5lFfidB-otQ-40" value="browse sponsorship opportunities" style="text;html=1;align=center;verticalAlign=middle;resizable=0;points=[];autosize=1;strokeColor=none;fillColor=none;" parent="1" vertex="1">
          <mxGeometry x="365" y="530" width="197" height="26" as="geometry" />
        </mxCell>
        <mxCell id="7QTIvbrDU5lFfidB-otQ-41" value="confirm&amp;nbsp; sponsorship agreement" style="text;html=1;align=center;verticalAlign=middle;resizable=0;points=[];autosize=1;strokeColor=none;fillColor=none;" parent="1" vertex="1">
          <mxGeometry x="338" y="632" width="189" height="26" as="geometry" />
        </mxCell>
        <mxCell id="7QTIvbrDU5lFfidB-otQ-42" value="notify admin of the final agreement" style="text;html=1;align=center;verticalAlign=middle;resizable=0;points=[];autosize=1;strokeColor=none;fillColor=none;" parent="1" vertex="1">
          <mxGeometry x="-37" y="773" width="202" height="26" as="geometry" />
        </mxCell>
        <mxCell id="7QTIvbrDU5lFfidB-otQ-43" value="approve final agreement" style="text;html=1;align=center;verticalAlign=middle;resizable=0;points=[];autosize=1;strokeColor=none;fillColor=none;" parent="1" vertex="1">
          <mxGeometry x="-32" y="889" width="147" height="26" as="geometry" />
        </mxCell>
        <mxCell id="7QTIvbrDU5lFfidB-otQ-44" value="notify sponsor of approval" style="text;html=1;align=center;verticalAlign=middle;resizable=0;points=[];autosize=1;strokeColor=none;fillColor=none;" parent="1" vertex="1">
          <mxGeometry x="325" y="977" width="155" height="26" as="geometry" />
        </mxCell>
        <mxCell id="7QTIvbrDU5lFfidB-otQ-45" value="notify sponsee of approval" style="text;html=1;align=center;verticalAlign=middle;resizable=0;points=[];autosize=1;strokeColor=none;fillColor=none;" parent="1" vertex="1">
          <mxGeometry x="-352" y="1045" width="158" height="26" as="geometry" />
        </mxCell>
        <mxCell id="7QTIvbrDU5lFfidB-otQ-46" value="confirm agreement" style="text;html=1;align=center;verticalAlign=middle;resizable=0;points=[];autosize=1;strokeColor=none;fillColor=none;" parent="1" vertex="1">
          <mxGeometry x="-389" y="675" width="118" height="26" as="geometry" />
        </mxCell>
        <mxCell id="7QTIvbrDU5lFfidB-otQ-47" value="review approval" style="text;html=1;align=center;verticalAlign=middle;resizable=0;points=[];autosize=1;strokeColor=none;fillColor=none;" parent="1" vertex="1">
          <mxGeometry x="-365" y="593" width="102" height="26" as="geometry" />
        </mxCell>
        <mxCell id="7QTIvbrDU5lFfidB-otQ-48" value="express interest in sponsorship" style="text;html=1;align=center;verticalAlign=middle;resizable=0;points=[];autosize=1;strokeColor=none;fillColor=none;" parent="1" vertex="1">
          <mxGeometry x="-398" y="499" width="183" height="26" as="geometry" />
        </mxCell>
      </root>
    </mxGraphModel>
  </diagram>
</mxfile>
